<svg xmlns="http://www.w3.org/2000/svg" width="1200" height="620" viewBox="0 0 1200 620"><defs><linearGradient id="bg" x2="1" y2="1"><stop stop-color="#e9eff0"/><stop offset="1" stop-color="#f2eeea"/></linearGradient></defs><rect width="1200" height="620" rx="32" fill="url(#bg)"/><g font-family="-apple-system,BlinkMacSystemFont,sans-serif" fill="#293639"><text x="48" y="66" font-size="30" font-weight="600">Hez 2.0</text><text x="48" y="98" font-size="16" fill="#677275">截图识图 · 剪贴板历史</text><rect x="42" y="134" width="540" height="410" rx="24" fill="#ffffff" fill-opacity=".8"/><rect x="618" y="134" width="540" height="410" rx="24" fill="#ffffff" fill-opacity=".8"/><text x="72" y="180" font-size="21" font-weight="600">05  截图识图</text><text x="648" y="180" font-size="21" font-weight="600">06  剪贴板</text><rect x="95" y="216" width="435" height="212" rx="12" fill="#ecf0f2" stroke="#5a9cc5" stroke-width="2"/><path d="M170 370 427 267m-46-8 48 6-12 47" fill="none" stroke="#5a9cc5" stroke-width="6" stroke-linecap="round"/><g fill="white" stroke="#5a9cc5" stroke-width="2"><circle cx="95" cy="216" r="6"/><circle cx="530" cy="216" r="6"/><circle cx="95" cy="428" r="6"/><circle cx="530" cy="428" r="6"/></g><text x="108" y="463" font-size="16">区域 / 窗口 / 手动长截图</text><text x="108" y="491" font-size="16" fill="#677275">标注 → 最终成图 → 复制 / 保存 / 本机 OCR</text><g fill="#eef2f2"><rect x="647" y="216" width="144" height="212" rx="16"/><rect x="816" y="216" width="144" height="212" rx="16"/><rect x="985" y="216" width="144" height="212" rx="16"/></g><g font-size="42" fill="#5a9cc5"><text x="685" y="302">Aa</text><text x="862" y="302">▧</text><text x="1031" y="302">▣</text></g><g font-size="17"><text x="700" y="370">文本</text><text x="869" y="370">图片</text><text x="1038" y="370">截图</text><text x="665" y="463">搜索 · 收藏 · 多选 · 复制 / 直接粘贴</text><text x="665" y="491" fill="#677275">本地保存，可设置期限、容量与单条限制</text></g><text x="48" y="588" font-size="15" fill="#677275">功能示意图 · 非实机截图 · 后台剪贴板记录默认关闭</text></g></svg>